<?xml version="1.0" standalone="no"?>
<!DOCTYPE svg PUBLIC "-//W3C//DTD SVG 20010904//EN"
 "http://www.w3.org/TR/2001/REC-SVG-20010904/DTD/svg10.dtd">
<svg version="1.0" xmlns="http://www.w3.org/2000/svg"
 width="225.000000pt" height="225.000000pt" viewBox="0 0 225.000000 225.000000"
 preserveAspectRatio="xMidYMid meet">

<g transform="translate(0.000000,225.000000) scale(0.100000,-0.100000)"
fill="#000000" stroke="none">
<path d="M974 2240 c-43 -17 -48 -87 -10 -119 14 -12 17 -33 15 -135 l-1 -121
31 -17 31 -18 0 145 c0 80 4 145 8 145 10 0 32 45 32 66 0 21 -46 64 -67 63
-10 0 -28 -4 -39 -9z"/>
<path d="M1442 2225 c-27 -23 -38 -25 -158 -27 l-129 -3 -3 -192 -2 -192 34
22 35 22 1 143 0 142 103 0 c74 -1 107 -5 121 -15 11 -8 34 -15 52 -15 62 0
87 80 38 119 -35 27 -56 26 -92 -4z"/>
<path d="M613 2042 c-28 -4 -53 -38 -53 -70 0 -28 42 -72 68 -72 11 0 31 9 45
20 18 15 40 20 81 20 l56 0 0 -45 c0 -48 4 -51 44 -35 24 9 26 15 26 64 0 76
-12 86 -109 86 -55 0 -82 4 -90 14 -14 17 -38 23 -68 18z"/>
<path d="M1488 1970 c-19 -14 -44 -20 -99 -22 l-74 -3 -3 -37 c-2 -28 1 -38
12 -38 8 0 21 -3 30 -6 11 -4 16 -1 16 10 0 25 91 22 115 -4 24 -26 76 -26
100 0 25 27 22 80 -6 102 -28 23 -60 23 -91 -2z"/>
<path d="M852 1759 c-45 -22 -83 -65 -101 -111 -6 -17 -20 -28 -39 -33 -82
-18 -172 -138 -172 -230 0 -36 -5 -46 -33 -68 -18 -13 -45 -48 -61 -76 -46
-86 -36 -182 29 -263 21 -26 27 -46 29 -93 4 -112 91 -222 191 -242 32 -7 43
-15 55 -41 35 -74 119 -132 190 -132 48 0 114 32 141 69 12 17 26 31 31 31 4
0 24 -18 45 -40 72 -76 177 -77 263 -3 22 19 49 52 60 73 11 22 29 40 43 44
76 19 153 121 164 218 5 45 12 58 44 86 100 87 109 233 20 334 -25 29 -30 41
-25 66 10 49 -22 138 -67 187 -45 48 -110 85 -153 85 -21 0 -30 7 -41 34 -8
19 -29 48 -47 66 -81 81 -196 81 -276 0 l-32 -34 -38 36 c-20 20 -50 42 -65
47 -45 17 -108 13 -155 -10z m132 -53 c21 -9 44 -32 65 -65 30 -49 34 -52 68
-49 31 3 38 8 44 32 17 64 84 103 147 86 80 -21 121 -103 87 -174 -16 -34 -16
-39 -2 -53 21 -22 44 -10 64 32 12 25 23 35 40 35 56 0 134 -70 152 -136 6
-20 8 -57 4 -80 -5 -41 -3 -47 35 -88 80 -87 76 -167 -13 -251 -49 -47 -53
-54 -57 -106 -5 -69 -34 -127 -78 -156 -18 -13 -36 -23 -40 -23 -3 0 -14 16
-23 35 -18 37 -89 95 -117 95 -22 0 -42 -23 -35 -41 3 -8 23 -25 45 -38 85
-53 74 -153 -23 -203 -81 -41 -152 -7 -178 85 -16 56 -31 71 -63 63 -19 -5
-28 -16 -37 -48 -16 -61 -76 -118 -123 -118 -75 0 -136 55 -136 122 0 41 27
75 90 118 17 12 21 21 16 38 -9 27 -26 28 -75 2 -40 -20 -76 -58 -86 -91 -17
-51 -126 5 -165 85 -18 39 -21 56 -15 105 6 53 5 60 -14 70 -34 19 -73 95 -73
146 0 54 25 98 82 143 37 31 40 36 40 84 0 66 31 131 78 163 20 14 41 25 47
25 5 0 18 -19 29 -41 23 -50 59 -70 83 -46 15 15 14 19 -10 55 -49 70 -24 153
58 188 39 17 49 17 89 0z"/>
<path d="M907 1228 c-25 -68 -58 -153 -72 -190 l-25 -68 59 0 c57 0 59 1 70
30 10 29 11 30 80 30 69 0 69 0 76 -30 6 -29 8 -30 70 -30 l63 0 -72 190 -71
190 -66 0 -66 0 -46 -122z m129 -35 c9 -32 19 -64 21 -70 4 -9 -7 -13 -36 -13
-23 0 -41 5 -41 10 0 14 32 130 36 130 2 0 11 -26 20 -57z"/>
<path d="M1260 1160 l0 -190 60 0 60 0 0 190 0 190 -60 0 -60 0 0 -190z"/>
<path d="M262 1627 c-27 -29 -28 -67 -2 -100 16 -20 20 -40 20 -105 0 -91 1
-92 84 -92 42 0 57 5 74 23 36 38 28 47 -38 47 l-60 0 0 55 c0 42 5 60 20 75
29 29 26 74 -6 99 -35 27 -65 27 -92 -2z"/>
<path d="M1839 1632 c-29 -25 -30 -74 -1 -105 15 -16 22 -36 22 -65 0 -38 -2
-42 -25 -42 -22 0 -25 -4 -25 -35 0 -35 1 -35 43 -35 24 0 48 5 55 12 7 7 12
41 12 81 0 54 4 74 20 94 27 34 25 59 -5 88 -29 30 -64 32 -96 7z"/>
<path d="M2112 1600 c-41 -17 -51 -92 -16 -121 10 -8 14 -38 14 -115 l0 -104
-119 0 -119 0 11 -30 12 -31 135 3 135 3 3 130 c2 100 6 133 17 141 40 30 34
102 -11 123 -29 13 -31 13 -62 1z"/>
<path d="M55 1250 c-25 -27 -22 -80 6 -102 28 -23 60 -23 91 2 19 14 44 20 98
22 71 3 74 4 81 31 l7 27 -82 0 c-70 0 -86 3 -101 20 -24 26 -76 26 -100 0z"/>
<path d="M2095 1100 c-16 -17 -31 -20 -107 -20 -69 0 -88 -3 -88 -14 0 -8 -3
-21 -6 -30 -5 -14 6 -16 86 -16 77 0 96 -3 117 -20 32 -25 64 -25 94 -2 28 23
30 73 4 102 -24 26 -76 26 -100 0z"/>
<path d="M92 1048 c-8 -8 -12 -53 -12 -136 0 -115 -2 -125 -22 -141 -27 -22
-28 -73 -3 -101 27 -30 78 -27 104 6 26 33 26 54 1 87 -17 21 -20 40 -20 126
l0 101 110 0 c61 0 110 2 110 5 0 4 -7 19 -15 35 l-16 30 -112 0 c-75 0 -117
-4 -125 -12z"/>
<path d="M1793 905 c-44 -31 -29 -45 47 -45 l70 0 0 -56 c0 -41 -5 -63 -20
-81 -25 -32 -25 -64 -2 -94 23 -28 73 -30 102 -4 26 24 26 76 0 100 -16 14
-20 33 -22 104 l-3 86 -75 3 c-56 2 -81 -1 -97 -13z"/>
<path d="M342 888 c-7 -7 -12 -40 -12 -79 0 -37 -5 -71 -11 -74 -5 -4 -15 -19
-20 -33 -22 -58 38 -116 94 -91 46 21 52 85 12 125 -20 20 -20 93 0 100 9 4
15 19 15 35 0 26 -3 29 -33 29 -18 0 -38 -5 -45 -12z"/>
<path d="M1028 417 l-28 -23 0 -142 0 -142 -109 0 c-84 0 -111 3 -121 15 -18
22 -73 19 -95 -5 -26 -29 -24 -79 4 -102 32 -25 67 -23 97 7 24 24 30 25 154
25 l130 0 0 195 c0 107 -1 195 -2 195 -2 -1 -15 -11 -30 -23z"/>
<path d="M1180 285 c0 -122 -2 -140 -20 -162 -28 -36 -26 -77 6 -102 34 -26
54 -26 88 0 32 25 34 66 6 102 -18 22 -20 40 -20 150 0 110 -2 125 -17 131
-10 3 -24 9 -30 12 -10 4 -13 -25 -13 -131z"/>
<path d="M631 374 c-27 -35 -26 -59 4 -89 29 -30 64 -32 98 -5 19 15 40 20 89
20 71 0 88 10 88 52 0 22 -6 29 -26 34 -19 5 -29 2 -36 -10 -14 -24 -90 -22
-113 4 -27 30 -78 27 -104 -6z"/>
<path d="M1358 393 c-15 -4 -18 -16 -18 -68 0 -79 8 -85 114 -85 42 0 78 -5
81 -11 23 -37 96 -24 115 20 29 72 -51 130 -113 81 -18 -15 -40 -20 -81 -20
l-56 0 0 45 c0 45 -3 48 -42 38z"/>
</g>
</svg>
